<svg width="446" height="78" viewBox="0 0 446 78" fill="none" xmlns="http://www.w3.org/2000/svg">
<path d="M8.4399 28.4202C12.5466 26.1802 18.1733 25.0602 25.3199 25.0602C32.5199 25.0602 39.1066 26.0469 45.0799 28.0202L42.8399 41.0602C40.3333 40.3135 37.8533 39.7802 35.3999 39.4602C32.9466 39.1402 30.4399 38.9802 27.8799 38.9802C27.1333 38.9802 26.1999 39.0069 25.0799 39.0602C24.0133 39.1135 22.7866 39.2202 21.3999 39.3802V42.4202C24.3333 42.4202 27.3466 42.5802 30.4399 42.9002C33.5333 43.1669 36.3333 43.8602 38.8399 44.9802C41.3999 46.0469 43.4799 47.6735 45.0799 49.8602C46.7333 51.9935 47.5599 54.9269 47.5599 58.6602C47.5599 61.2735 47.2666 63.6202 46.6799 65.7002C46.0933 67.7269 45.1866 69.3535 43.9599 70.5802C42.6799 71.8069 41.3466 72.7935 39.9599 73.5402C38.6266 74.2869 36.8666 74.8202 34.6799 75.1402C32.9733 75.4069 31.1333 75.5935 29.1599 75.7001C27.2399 75.8602 25.1599 75.9402 22.9199 75.9402C15.0799 75.9402 7.90657 75.0069 1.3999 73.1402L3.7999 59.5402C6.5199 60.3402 9.31988 60.9535 12.1999 61.3802C15.0799 61.8069 18.0933 62.0202 21.2399 62.0202C22.6799 62.0202 24.0399 61.9935 25.3199 61.9402C26.6533 61.8869 27.9333 61.7802 29.1599 61.6202V58.5802C24.0399 58.5802 19.7466 58.2602 16.2799 57.6202C12.8666 56.9269 10.0933 55.8869 7.9599 54.5002C5.8799 53.1135 4.38657 51.3002 3.4799 49.0602C2.62657 46.8202 2.1999 44.1535 2.1999 41.0602C2.1999 34.8735 4.2799 30.6602 8.4399 28.4202ZM89.4687 60.1002L90.6687 73.9402C87.362 75.2735 83.0687 75.9402 77.7887 75.9402C68.8287 75.9402 62.3487 73.8602 58.3487 69.7002C54.3487 65.4869 52.3487 59.0869 52.3487 50.5002C52.3487 41.9135 54.3487 35.5402 58.3487 31.3802C62.3487 27.1669 68.8287 25.0602 77.7887 25.0602C83.4953 25.0602 87.7887 25.7269 90.6687 27.0602L88.3487 40.1002C86.642 39.7802 85.122 39.5402 83.7887 39.3802C82.4553 39.1669 81.282 39.0602 80.2687 39.0602C75.4153 39.0602 72.9887 40.7669 72.9887 44.1802V61.3802C73.8953 61.5402 74.9353 61.6735 76.1087 61.7802C77.3353 61.8869 78.6953 61.9402 80.1887 61.9402C83.1753 61.9402 86.2687 61.3269 89.4687 60.1002ZM117.532 44.9002V74.5002H98.3312V12.1002L117.532 10.6602V28.2602C121.638 26.1269 126.172 25.0602 131.132 25.0602C136.145 25.0602 139.932 26.0469 142.492 28.0202C145.052 29.9402 146.332 32.6335 146.332 36.1002V74.5002H127.132V40.9002H124.172C121.825 40.9002 120.118 41.1402 119.052 41.6202C118.038 42.1002 117.532 43.1935 117.532 44.9002Z" fill="#2652F0"/>
<mask id="mask0_754_7007" style="mask-type:luminance" maskUnits="userSpaceOnUse" x="0" y="9" width="148" height="69">
<path d="M148 9.5H0V77.5H148V9.5Z" fill="white"/>
<path d="M8.43999 28.4199C12.5467 26.1799 18.1734 25.0599 25.32 25.0599C32.52 25.0599 39.1067 26.0466 45.08 28.0199L42.84 41.0599C40.3334 40.3132 37.8534 39.7799 35.4 39.4599C32.9467 39.1399 30.44 38.9799 27.88 38.9799C27.1334 38.9799 26.2 39.0066 25.08 39.0599C24.0134 39.1132 22.7867 39.2199 21.4 39.3799V42.4199C24.3334 42.4199 27.3467 42.5799 30.44 42.8999C33.5334 43.1666 36.3334 43.8599 38.84 44.9799C41.4 46.0466 43.48 47.6732 45.08 49.8599C46.7334 51.9932 47.56 54.9266 47.56 58.6599C47.56 61.2732 47.2667 63.6199 46.68 65.6999C46.0934 67.7266 45.1867 69.3532 43.96 70.5799C42.68 71.8066 41.3467 72.7932 39.96 73.5399C38.6267 74.2866 36.8667 74.8199 34.68 75.1399C32.9734 75.4066 31.1334 75.5932 29.16 75.6999C27.24 75.8599 25.16 75.9399 22.92 75.9399C15.08 75.9399 7.90666 75.0066 1.39999 73.1399L3.79999 59.5399C6.51999 60.3399 9.31997 60.9532 12.2 61.3799C15.08 61.8066 18.0934 62.0199 21.24 62.0199C22.68 62.0199 24.04 61.9932 25.32 61.9399C26.6534 61.8866 27.9334 61.7799 29.16 61.6199V58.5799C24.04 58.5799 19.7467 58.2599 16.28 57.6199C12.8667 56.9266 10.0934 55.8866 7.95999 54.4999C5.87999 53.1132 4.38666 51.2999 3.47999 49.0599C2.62666 46.8199 2.19999 44.1532 2.19999 41.0599C2.19999 34.8732 4.27999 30.6599 8.43999 28.4199ZM89.4688 60.0999L90.6688 73.9399C87.3621 75.2732 83.0688 75.9399 77.7888 75.9399C68.8288 75.9399 62.3488 73.8599 58.3488 69.6999C54.3488 65.4866 52.3488 59.0866 52.3488 50.4999C52.3488 41.9132 54.3488 35.5399 58.3488 31.3799C62.3488 27.1666 68.8288 25.0599 77.7888 25.0599C83.4954 25.0599 87.7888 25.7266 90.6688 27.0599L88.3488 40.0999C86.6421 39.7799 85.1221 39.5399 83.7888 39.3799C82.4554 39.1666 81.2821 39.0599 80.2688 39.0599C75.4154 39.0599 72.9888 40.7666 72.9888 44.1799V61.3799C73.8954 61.5399 74.9354 61.6732 76.1088 61.7799C77.3354 61.8866 78.6954 61.9399 80.1888 61.9399C83.1754 61.9399 86.2688 61.3266 89.4688 60.0999ZM117.532 44.8999V74.4999H98.3313V12.0999L117.532 10.6599V28.2599C121.638 26.1266 126.172 25.0599 131.132 25.0599C136.145 25.0599 139.932 26.0466 142.492 28.0199C145.052 29.9399 146.332 32.6332 146.332 36.0999V74.4999H127.132V40.8999H124.172C121.825 40.8999 120.118 41.1399 119.052 41.6199C118.038 42.0999 117.532 43.1932 117.532 44.8999Z" fill="black"/>
</mask>
<g mask="url(#mask0_754_7007)">
<path d="M8.43999 28.4201L8.91407 29.3006L8.91887 29.298L8.43999 28.4201ZM45.08 28.0201L46.0656 28.1894L46.2114 27.3407L45.3937 27.0706L45.08 28.0201ZM42.84 41.0601L42.5546 42.0185L43.6348 42.3403L43.8256 41.2294L42.84 41.0601ZM25.08 39.0601L25.0325 38.0612L25.0301 38.0613L25.08 39.0601ZM21.4 39.3801L21.2854 38.3867L20.4 38.4888V39.3801H21.4ZM21.4 42.4201H20.4V43.4201H21.4V42.4201ZM30.44 42.9001L30.3371 43.8948L30.3456 43.8957L30.3541 43.8964L30.44 42.9001ZM38.84 44.9801L38.4321 45.8931L38.4437 45.8983L38.4554 45.9032L38.84 44.9801ZM45.08 49.8601L44.273 50.4506L44.2812 50.4618L44.2896 50.4727L45.08 49.8601ZM46.68 65.7001L47.6406 65.9782L47.6425 65.9716L46.68 65.7001ZM43.96 70.5801L44.6519 71.3021L44.6596 71.2947L44.6671 71.2872L43.96 70.5801ZM39.96 73.5401L39.4859 72.6596L39.4786 72.6636L39.4714 72.6676L39.96 73.5401ZM34.68 75.1401L34.5352 74.1506L34.5256 74.1521L34.68 75.1401ZM29.16 75.7001L29.106 74.7016L29.0915 74.7023L29.077 74.7036L29.16 75.7001ZM1.39999 73.1401L0.415208 72.9663L0.258728 73.853L1.12423 74.1013L1.39999 73.1401ZM3.79999 59.5401L4.08216 58.5807L3.00952 58.2653L2.81521 59.3663L3.79999 59.5401ZM25.32 61.9401L25.2801 60.9409L25.2784 60.941L25.32 61.9401ZM29.16 61.6201L29.2894 62.6117L30.16 62.4981V61.6201H29.16ZM29.16 58.5801H30.16V57.5801H29.16V58.5801ZM16.28 57.6201L16.081 58.6001L16.0897 58.6019L16.0985 58.6035L16.28 57.6201ZM7.95999 54.5001L7.40526 55.3322L7.41501 55.3385L7.95999 54.5001ZM3.47999 49.0601L2.54551 49.4161L2.54918 49.4257L2.55305 49.4353L3.47999 49.0601ZM8.91887 29.298C12.8211 27.1695 18.2599 26.0601 25.32 26.0601V24.0601C18.0868 24.0601 12.2723 25.1907 7.96114 27.5422L8.91887 29.298ZM25.32 26.0601C32.4286 26.0601 38.9076 27.0342 44.7663 28.9696L45.3937 27.0706C39.3057 25.0594 32.6115 24.0601 25.32 24.0601V26.0601ZM44.0945 27.8508L41.8545 40.8908L43.8256 41.2294L46.0656 28.1894L44.0945 27.8508ZM43.1255 40.1017C40.5707 39.3407 38.0385 38.7958 35.5294 38.4685L35.2707 40.4517C37.6683 40.7644 40.0961 41.2862 42.5546 42.0185L43.1255 40.1017ZM35.5294 38.4685C33.0317 38.1427 30.4818 37.9801 27.88 37.9801V39.9801C30.3983 39.9801 32.8617 40.1375 35.2707 40.4517L35.5294 38.4685ZM27.88 37.9801C27.1118 37.9801 26.1613 38.0075 25.0325 38.0612L25.1276 40.059C26.2387 40.0061 27.1549 39.9801 27.88 39.9801V37.9801ZM25.0301 38.0613C23.9364 38.116 22.6875 38.2249 21.2854 38.3867L21.5146 40.3735C22.8859 40.2153 24.0903 40.1108 25.13 40.0589L25.0301 38.0613ZM20.4 39.3801V42.4201H22.4V39.3801H20.4ZM21.4 43.4201C24.297 43.4201 27.2759 43.5781 30.3371 43.8948L30.5429 41.9054C27.4174 41.5821 24.3697 41.4201 21.4 41.4201V43.4201ZM30.3541 43.8964C33.3506 44.1547 36.0398 44.8242 38.4321 45.8931L39.248 44.0671C36.627 42.896 33.7161 42.1788 30.5259 41.9038L30.3541 43.8964ZM38.4554 45.9032C40.8511 46.9014 42.7834 48.4149 44.273 50.4506L45.8871 49.2696C44.1766 46.932 41.949 45.1922 39.2246 44.057L38.4554 45.9032ZM44.2896 50.4727C45.7635 52.3744 46.56 55.0649 46.56 58.6601H48.56C48.56 54.7886 47.7032 51.6124 45.8704 49.2475L44.2896 50.4727ZM46.56 58.6601C46.56 61.2001 46.2748 63.4531 45.7176 65.4286L47.6425 65.9716C48.2586 63.7871 48.56 61.3467 48.56 58.6601H46.56ZM45.7195 65.422C45.1696 67.3214 44.337 68.7889 43.2529 69.873L44.6671 71.2872C46.0364 69.918 47.0171 68.1321 47.6406 65.9782L45.7195 65.422ZM43.2681 69.8581C42.0452 71.0301 40.7839 71.9607 39.4859 72.6596L40.4341 74.4206C41.9095 73.6262 43.3148 72.5835 44.6519 71.3021L43.2681 69.8581ZM39.4714 72.6676C38.2808 73.3344 36.6504 73.8411 34.5352 74.1506L34.8248 76.1296C37.083 75.7991 38.9726 75.2392 40.4486 74.4126L39.4714 72.6676ZM34.5256 74.1521C32.8566 74.4129 31.0504 74.5965 29.106 74.7016L29.214 76.6986C31.2163 76.5904 33.0901 76.4007 34.8344 76.1281L34.5256 74.1521ZM29.077 74.7036C27.1886 74.8609 25.1366 74.9401 22.92 74.9401V76.9401C25.1834 76.9401 27.2914 76.8593 29.2431 76.6966L29.077 74.7036ZM22.92 74.9401C15.1589 74.9401 8.07991 74.0161 1.67576 72.1789L1.12423 74.1013C7.73341 75.9974 15.0011 76.9401 22.92 76.9401V74.9401ZM2.38478 73.3139L4.78478 59.7139L2.81521 59.3663L0.415208 72.9663L2.38478 73.3139ZM3.51783 60.4995C6.28346 61.3129 9.12887 61.936 12.0535 62.3693L12.3466 60.3909C9.51117 59.9708 6.75653 59.3673 4.08216 58.5807L3.51783 60.4995ZM12.0535 62.3693C14.9857 62.8037 18.0482 63.0201 21.24 63.0201V61.0201C18.1385 61.0201 15.1743 60.8098 12.3466 60.3909L12.0535 62.3693ZM21.24 63.0201C22.6922 63.0201 24.0662 62.9932 25.3617 62.9392L25.2784 60.941C24.0138 60.9937 22.6678 61.0201 21.24 61.0201V63.0201ZM25.36 62.9393C26.7209 62.8849 28.0308 62.7759 29.2894 62.6117L29.0307 60.6285C27.8359 60.7843 26.5858 60.8887 25.2801 60.9409L25.36 62.9393ZM30.16 61.6201V58.5801H28.16V61.6201H30.16ZM29.16 57.5801C24.0762 57.5801 19.8482 57.2619 16.4616 56.6367L16.0985 58.6035C19.6452 59.2583 24.0038 59.5801 29.16 59.5801V57.5801ZM16.4791 56.6401C13.1465 55.9632 10.5019 54.9596 8.50498 53.6617L7.41501 55.3385C9.68477 56.8139 12.5869 57.8904 16.081 58.6001L16.4791 56.6401ZM8.5147 53.668C6.59573 52.3887 5.23552 50.732 4.40694 48.6849L2.55305 49.4353C3.5378 51.8682 5.16423 53.8381 7.40526 55.3322L8.5147 53.668ZM4.41448 48.7041C3.61501 46.6055 3.19999 44.0654 3.19999 41.0601H1.19999C1.19999 44.2415 1.63832 47.0347 2.54551 49.4161L4.41448 48.7041ZM3.19999 41.0601C3.19999 35.1091 5.17979 31.3113 8.91407 29.3006L7.9659 27.5396C3.3802 30.0088 1.19999 34.6377 1.19999 41.0601H3.19999ZM89.4688 60.1001L90.465 60.0137L90.3504 58.6912L89.1108 59.1664L89.4688 60.1001ZM90.6688 73.9401L91.0427 74.8675L91.729 74.5908L91.665 73.8537L90.6688 73.9401ZM58.3488 69.7001L57.6235 70.3886L57.6279 70.3932L58.3488 69.7001ZM58.3488 31.3801L59.0696 32.0732L59.074 32.0686L58.3488 31.3801ZM90.6688 27.0601L91.6533 27.2353L91.7883 26.4764L91.0889 26.1526L90.6688 27.0601ZM88.3488 40.1001L88.1645 41.083L89.1565 41.269L89.3333 40.2753L88.3488 40.1001ZM83.7888 39.3801L83.6308 40.3675L83.6502 40.3706L83.6696 40.373L83.7888 39.3801ZM72.9888 61.3801H71.9888V62.2191L72.815 62.3649L72.9888 61.3801ZM76.1088 61.7801L76.0182 62.776L76.0221 62.7763L76.1088 61.7801ZM88.4725 60.1865L89.6725 74.0265L91.665 73.8537L90.465 60.0137L88.4725 60.1865ZM90.2948 73.0127C87.1498 74.2808 82.9966 74.9401 77.7888 74.9401V76.9401C83.1409 76.9401 87.5745 76.266 91.0427 74.8675L90.2948 73.0127ZM77.7888 74.9401C68.9534 74.9401 62.7988 72.8854 59.0696 69.007L57.6279 70.3932C61.8987 74.8348 68.7041 76.9401 77.7888 76.9401V74.9401ZM59.074 69.0116C55.319 65.0563 53.3488 58.9513 53.3488 50.5001H51.3488C51.3488 59.2222 53.3786 65.9172 57.6235 70.3886L59.074 69.0116ZM53.3488 50.5001C53.3488 42.0476 55.3195 35.9733 59.0696 32.0732L57.6279 30.687C53.3781 35.1069 51.3488 41.7793 51.3488 50.5001H53.3488ZM59.074 32.0686C62.8037 28.1399 68.9565 26.0601 77.7888 26.0601V24.0601C68.701 24.0601 61.8938 26.1936 57.6235 30.6916L59.074 32.0686ZM77.7888 26.0601C83.4481 26.0601 87.5669 26.726 90.2487 27.9676L91.0889 26.1526C88.0106 24.7275 83.5427 24.0601 77.7888 24.0601V26.0601ZM89.6842 26.8849L87.3642 39.9249L89.3333 40.2753L91.6533 27.2353L89.6842 26.8849ZM88.5331 39.1172C86.8107 38.7943 85.2683 38.5505 83.9079 38.3872L83.6696 40.373C84.9759 40.5297 86.4735 40.7659 88.1645 41.083L88.5331 39.1172ZM83.9468 38.3927C82.5772 38.1735 81.3491 38.0601 80.2688 38.0601V40.0601C81.2151 40.0601 82.3337 40.16 83.6308 40.3675L83.9468 38.3927ZM80.2688 38.0601C77.7555 38.0601 75.6919 38.4965 74.2335 39.5221C72.7108 40.593 71.9888 42.2044 71.9888 44.1801H73.9888C73.9888 42.7425 74.4801 41.7938 75.384 41.1581C76.3524 40.4771 77.9288 40.0601 80.2688 40.0601V38.0601ZM71.9888 44.1801V61.3801H73.9888V44.1801H71.9888ZM72.815 62.3649C73.7556 62.5309 74.8243 62.6675 76.0182 62.776L76.1993 60.7842C75.0466 60.6794 74.0353 60.5493 73.1626 60.3953L72.815 62.3649ZM76.0221 62.7763C77.2829 62.886 78.6724 62.9401 80.1888 62.9401V60.9401C78.7185 60.9401 77.388 60.8876 76.1954 60.7839L76.0221 62.7763ZM80.1888 62.9401C83.3144 62.9401 86.5291 62.2979 89.8267 61.0338L89.1108 59.1664C86.0085 60.3556 83.0364 60.9401 80.1888 60.9401V62.9401ZM117.532 74.5001V75.5001H118.532V74.5001H117.532ZM98.3313 74.5001H97.3313V75.5001H98.3313V74.5001ZM98.3313 12.1001L98.2565 11.1029L97.3313 11.1723V12.1001H98.3313ZM117.532 10.6601H118.532V9.58228L117.457 9.66288L117.532 10.6601ZM117.532 28.2601H116.532V29.9065L117.993 29.1475L117.532 28.2601ZM142.492 28.0201L141.881 28.8122L141.892 28.8201L142.492 28.0201ZM146.332 74.5001V75.5001H147.332V74.5001H146.332ZM127.132 74.5001H126.132V75.5001H127.132V74.5001ZM127.132 40.9001H128.132V39.9001H127.132V40.9001ZM119.052 41.6201L118.641 40.7082L118.632 40.7122L118.623 40.7164L119.052 41.6201ZM116.532 44.9001V74.5001H118.532V44.9001H116.532ZM117.532 73.5001H98.3313V75.5001H117.532V73.5001ZM99.3317 74.5001V12.1001H97.3313V74.5001H99.3317ZM98.4061 13.0973L117.606 11.6573L117.457 9.66288L98.2565 11.1029L98.4061 13.0973ZM116.532 10.6601V28.2601H118.532V10.6601H116.532ZM117.993 29.1475C121.947 27.0934 126.32 26.0601 131.132 26.0601V24.0601C126.023 24.0601 121.33 25.1601 117.071 27.3727L117.993 29.1475ZM131.132 26.0601C136.039 26.0601 139.569 27.03 141.881 28.8122L143.102 27.2281C140.294 25.0636 136.251 24.0601 131.132 24.0601V26.0601ZM141.892 28.8201C144.176 30.5337 145.332 32.9178 145.332 36.1001H147.332C147.332 32.3491 145.927 29.3465 143.092 27.2201L141.892 28.8201ZM145.332 36.1001V74.5001H147.332V36.1001H145.332ZM146.332 73.5001H127.132V75.5001H146.332V73.5001ZM128.132 74.5001V40.9001H126.132V74.5001H128.132ZM127.132 39.9001H124.172V41.9001H127.132V39.9001ZM124.172 39.9001C121.797 39.9001 119.911 40.1367 118.641 40.7082L119.462 42.532C120.325 42.1435 121.852 41.9001 124.172 41.9001V39.9001ZM118.623 40.7164C117.095 41.4405 116.532 43.0331 116.532 44.9001H118.532C118.532 43.3538 118.982 42.7597 119.48 42.5238L118.623 40.7164Z" fill="#3485FF"/>
</g>
<path d="M230.4 74.5001V64.9001L249.2 41.4601L248.96 40.9001H233.76L232.32 26.5001H275.92V36.1001L257.36 59.5401L257.68 60.1001H276.48V74.5001H230.4ZM281.74 50.5001C281.74 41.9134 283.74 35.5401 287.74 31.3801C291.74 27.1668 298.22 25.0601 307.18 25.0601C316.14 25.0601 322.62 27.1668 326.62 31.3801C330.62 35.5401 332.62 41.9134 332.62 50.5001C332.62 59.0868 330.62 65.4868 326.62 69.7001C322.62 73.8601 316.14 75.9401 307.18 75.9401C298.433 75.9401 292.006 73.8868 287.9 69.7801C283.793 65.6734 281.74 59.2468 281.74 50.5001ZM302.38 43.1401V61.9401H305.34C307.686 61.9401 309.366 61.7001 310.38 61.2201C311.446 60.7401 311.98 59.6201 311.98 57.8601V39.0601H309.02C306.673 39.0601 304.966 39.3001 303.9 39.7801C302.886 40.2601 302.38 41.3801 302.38 43.1401ZM340.3 26.5001H349.9L354.7 31.3001C360.62 27.1401 367.02 25.0601 373.9 25.0601C378.434 25.0601 381.954 26.0468 384.46 28.0201C387.02 29.9401 388.3 32.6334 388.3 36.1001V74.5001H369.1V40.9001H366.14C363.954 40.9001 362.3 41.1401 361.18 41.6201C360.06 42.0468 359.5 43.0334 359.5 44.5801V74.5001H340.3V26.5001ZM416.13 58.1801V61.5401C417.09 61.6468 418.05 61.7268 419.01 61.7801C419.97 61.8334 420.93 61.8601 421.89 61.8601C427.863 61.8601 433.89 60.9001 439.97 58.9801L442.21 73.0601C435.01 74.9801 427.916 75.9401 420.93 75.9401C411.97 75.9401 405.49 73.8601 401.49 69.7001C397.49 65.4868 395.49 59.0868 395.49 50.5001C395.49 41.9134 397.49 35.5401 401.49 31.3801C405.543 27.1668 412.023 25.0601 420.93 25.0601C425.41 25.0601 429.143 25.3534 432.13 25.9401C435.116 26.4734 437.516 27.4068 439.33 28.7401C441.196 30.0201 442.503 31.7801 443.25 34.0201C444.05 36.2068 444.45 38.9801 444.45 42.3401C444.45 45.1134 443.97 47.5134 443.01 49.5401C442.103 51.5134 440.556 53.1401 438.37 54.4201C436.183 55.7001 433.276 56.6601 429.65 57.3001C426.023 57.8868 421.516 58.1801 416.13 58.1801ZM416.13 43.1401V47.0601H420.05C422.396 47.0601 424.076 46.8201 425.09 46.3401C426.156 45.8601 426.69 44.7401 426.69 42.9801V39.0601H422.77C420.423 39.0601 418.716 39.3001 417.65 39.7801C416.636 40.2601 416.13 41.3801 416.13 43.1401Z" fill="#2652F0"/>
<mask id="mask1_754_7007" style="mask-type:luminance" maskUnits="userSpaceOnUse" x="228" y="23" width="218" height="55">
<path d="M446 23.5H229V77.5H446V23.5Z" fill="white"/>
<path d="M230.4 74.5001V64.9001L249.2 41.4601L248.96 40.9001H233.76L232.32 26.5001H275.92V36.1001L257.36 59.5401L257.68 60.1001H276.48V74.5001H230.4ZM281.74 50.5001C281.74 41.9134 283.74 35.5401 287.74 31.3801C291.74 27.1668 298.22 25.0601 307.18 25.0601C316.14 25.0601 322.62 27.1668 326.62 31.3801C330.62 35.5401 332.62 41.9134 332.62 50.5001C332.62 59.0868 330.62 65.4868 326.62 69.7001C322.62 73.8601 316.14 75.9401 307.18 75.9401C298.433 75.9401 292.006 73.8868 287.9 69.7801C283.793 65.6734 281.74 59.2468 281.74 50.5001ZM302.38 43.1401V61.9401H305.34C307.686 61.9401 309.366 61.7001 310.38 61.2201C311.446 60.7401 311.98 59.6201 311.98 57.8601V39.0601H309.02C306.673 39.0601 304.966 39.3001 303.9 39.7801C302.886 40.2601 302.38 41.3801 302.38 43.1401ZM340.3 26.5001H349.9L354.7 31.3001C360.62 27.1401 367.02 25.0601 373.9 25.0601C378.434 25.0601 381.954 26.0468 384.46 28.0201C387.02 29.9401 388.3 32.6334 388.3 36.1001V74.5001H369.1V40.9001H366.14C363.954 40.9001 362.3 41.1401 361.18 41.6201C360.06 42.0468 359.5 43.0334 359.5 44.5801V74.5001H340.3V26.5001ZM416.13 58.1801V61.5401C417.09 61.6468 418.05 61.7268 419.01 61.7801C419.97 61.8334 420.93 61.8601 421.89 61.8601C427.863 61.8601 433.89 60.9001 439.97 58.9801L442.21 73.0601C435.01 74.9801 427.916 75.9401 420.93 75.9401C411.97 75.9401 405.49 73.8601 401.49 69.7001C397.49 65.4868 395.49 59.0868 395.49 50.5001C395.49 41.9134 397.49 35.5401 401.49 31.3801C405.543 27.1668 412.023 25.0601 420.93 25.0601C425.41 25.0601 429.143 25.3534 432.13 25.9401C435.116 26.4734 437.516 27.4068 439.33 28.7401C441.196 30.0201 442.503 31.7801 443.25 34.0201C444.05 36.2068 444.45 38.9801 444.45 42.3401C444.45 45.1134 443.97 47.5134 443.01 49.5401C442.103 51.5134 440.556 53.1401 438.37 54.4201C436.183 55.7001 433.276 56.6601 429.65 57.3001C426.023 57.8868 421.516 58.1801 416.13 58.1801ZM416.13 43.1401V47.0601H420.05C422.396 47.0601 424.076 46.8201 425.09 46.3401C426.156 45.8601 426.69 44.7401 426.69 42.9801V39.0601H422.77C420.423 39.0601 418.716 39.3001 417.65 39.7801C416.636 40.2601 416.13 41.3801 416.13 43.1401Z" fill="black"/>
</mask>
<g mask="url(#mask1_754_7007)">
<path d="M230.4 74.5001H229.4V75.5001H230.4V74.5001ZM230.4 64.9001L229.62 64.2744L229.4 64.5486V64.9001H230.4ZM249.2 41.4601L249.98 42.0858L250.356 41.6177L250.119 41.0662L249.2 41.4601ZM248.96 40.9001L249.879 40.5062L249.62 39.9001H248.96V40.9001ZM233.76 40.9001L232.765 40.9996L232.855 41.9001H233.76V40.9001ZM232.32 26.5001V25.5001H231.215L231.325 26.5996L232.32 26.5001ZM275.92 26.5001H276.92V25.5001H275.92V26.5001ZM275.92 36.1001L276.704 36.7209L276.92 36.4481V36.1001H275.92ZM257.36 59.5401L256.576 58.9193L256.157 59.4493L256.492 60.0362L257.36 59.5401ZM257.68 60.1001L256.812 60.5962L257.1 61.1001H257.68V60.1001ZM276.48 60.1001H277.48V59.1001H276.48V60.1001ZM276.48 74.5001V75.5001H277.48V74.5001H276.48ZM231.4 74.5001V64.9001H229.4V74.5001H231.4ZM231.18 65.5258L249.98 42.0858L248.42 40.8344L229.62 64.2744L231.18 65.5258ZM250.119 41.0662L249.879 40.5062L248.041 41.294L248.281 41.854L250.119 41.0662ZM248.96 39.9001H233.76V41.9001H248.96V39.9001ZM234.755 40.8006L233.315 26.4006L231.325 26.5996L232.765 40.9996L234.755 40.8006ZM232.32 27.5001H275.92V25.5001H232.32V27.5001ZM274.92 26.5001V36.1001H276.92V26.5001H274.92ZM275.136 35.4793L256.576 58.9193L258.144 60.1609L276.704 36.7209L275.136 35.4793ZM256.492 60.0362L256.812 60.5962L258.549 59.604L258.229 59.044L256.492 60.0362ZM257.68 61.1001H276.48V59.1001H257.68V61.1001ZM275.48 60.1001V74.5001H277.48V60.1001H275.48ZM276.48 73.5001H230.4V75.5001H276.48V73.5001ZM287.74 31.3801L288.461 32.0732L288.465 32.0686L287.74 31.3801ZM326.62 31.3801L325.894 32.0686L325.899 32.0732L326.62 31.3801ZM326.62 69.7001L327.341 70.3932L327.345 70.3886L326.62 69.7001ZM302.38 61.9401H301.38V62.9401H302.38V61.9401ZM310.38 61.2201L309.969 60.3082L309.96 60.3122L309.952 60.3164L310.38 61.2201ZM311.98 39.0601H312.98V38.0601H311.98V39.0601ZM303.9 39.7801L303.489 38.8682L303.48 38.8722L303.472 38.8764L303.9 39.7801ZM282.74 50.5001C282.74 42.0476 284.71 35.9733 288.461 32.0732L287.019 30.687C282.769 35.1069 280.74 41.7793 280.74 50.5001H282.74ZM288.465 32.0686C292.195 28.1399 298.347 26.0601 307.18 26.0601V24.0601C298.092 24.0601 291.285 26.1936 287.014 30.6916L288.465 32.0686ZM307.18 26.0601C316.012 26.0601 322.165 28.1399 325.894 32.0686L327.345 30.6916C323.075 26.1936 316.267 24.0601 307.18 24.0601V26.0601ZM325.899 32.0732C329.649 35.9733 331.62 42.0476 331.62 50.5001H333.62C333.62 41.7793 331.59 35.1069 327.341 30.687L325.899 32.0732ZM331.62 50.5001C331.62 58.9513 329.649 65.0563 325.894 69.0116L327.345 70.3886C331.59 65.9172 333.62 59.2222 333.62 50.5001H331.62ZM325.899 69.007C322.17 72.8854 316.015 74.9401 307.18 74.9401V76.9401C316.264 76.9401 323.07 74.8348 327.341 70.3932L325.899 69.007ZM307.18 74.9401C298.566 74.9401 292.449 72.9156 288.607 69.073L287.193 70.4872C291.563 74.8579 298.3 76.9401 307.18 76.9401V74.9401ZM288.607 69.073C284.764 65.2303 282.74 59.114 282.74 50.5001H280.74C280.74 59.3796 282.822 66.1165 287.193 70.4872L288.607 69.073ZM301.38 43.1401V61.9401H303.38V43.1401H301.38ZM302.38 62.9401H305.34V60.9401H302.38V62.9401ZM305.34 62.9401C307.707 62.9401 309.58 62.7054 310.808 62.1238L309.952 60.3164C309.153 60.6948 307.666 60.9401 305.34 60.9401V62.9401ZM310.79 62.132C312.384 61.4148 312.98 59.7879 312.98 57.8601H310.98C310.98 59.4523 310.509 60.0654 309.969 60.3082L310.79 62.132ZM312.98 57.8601V39.0601H310.98V57.8601H312.98ZM311.98 38.0601H309.02V40.0601H311.98V38.0601ZM309.02 38.0601C306.646 38.0601 304.759 38.2967 303.489 38.8682L304.31 40.692C305.173 40.3035 306.7 40.0601 309.02 40.0601V38.0601ZM303.472 38.8764C301.933 39.6053 301.38 41.237 301.38 43.1401H303.38C303.38 41.5232 303.84 40.9149 304.328 40.6838L303.472 38.8764ZM340.3 26.5001V25.5001H339.3V26.5001H340.3ZM349.9 26.5001L350.607 25.793L350.315 25.5001H349.9V26.5001ZM354.7 31.3001L353.993 32.0072L354.588 32.6015L355.275 32.1183L354.7 31.3001ZM384.46 28.0201L383.842 28.8058L383.851 28.8131L383.86 28.8201L384.46 28.0201ZM388.3 74.5001V75.5001H389.3V74.5001H388.3ZM369.1 74.5001H368.1V75.5001H369.1V74.5001ZM369.1 40.9001H370.1V39.9001H369.1V40.9001ZM361.18 41.6201L361.536 42.5546L361.555 42.5473L361.574 42.5392L361.18 41.6201ZM359.5 74.5001V75.5001H360.5V74.5001H359.5ZM340.3 74.5001H339.3V75.5001H340.3V74.5001ZM340.3 27.5001H349.9V25.5001H340.3V27.5001ZM349.193 27.2072L353.993 32.0072L355.407 30.593L350.607 25.793L349.193 27.2072ZM355.275 32.1183C361.036 28.0701 367.237 26.0601 373.9 26.0601V24.0601C366.804 24.0601 360.205 26.2101 354.125 30.4819L355.275 32.1183ZM373.9 26.0601C378.301 26.0601 381.572 27.0192 383.842 28.8058L385.079 27.2344C382.335 25.0743 378.566 24.0601 373.9 24.0601V26.0601ZM383.86 28.8201C386.145 30.5337 387.3 32.9178 387.3 36.1001H389.3C389.3 32.3491 387.896 29.3465 385.06 27.2201L383.86 28.8201ZM387.3 36.1001V74.5001H389.3V36.1001H387.3ZM388.3 73.5001H369.1V75.5001H388.3V73.5001ZM370.1 74.5001V40.9001H368.1V74.5001H370.1ZM369.1 39.9001H366.14V41.9001H369.1V39.9001ZM366.14 39.9001C363.909 39.9001 362.093 40.1408 360.786 40.701L361.574 42.5392C362.507 42.1394 363.999 41.9001 366.14 41.9001V39.9001ZM360.824 40.6856C360.06 40.9767 359.452 41.479 359.051 42.1865C358.66 42.8752 358.5 43.6939 358.5 44.5801H360.5C360.5 43.9196 360.621 43.4717 360.79 43.1737C360.948 42.8946 361.18 42.6902 361.536 42.5546L360.824 40.6856ZM358.5 44.5801V74.5001H360.5V44.5801H358.5ZM359.5 73.5001H340.3V75.5001H359.5V73.5001ZM341.3 74.5001V26.5001H339.3V74.5001H341.3ZM416.13 58.1801V57.1801H415.13V58.1801H416.13ZM416.13 61.5401H415.13V62.4351L416.019 62.534L416.13 61.5401ZM439.97 58.9801L440.957 58.823L440.775 57.6771L439.669 58.0265L439.97 58.9801ZM442.21 73.0601L442.467 74.0263L443.339 73.7939L443.197 72.903L442.21 73.0601ZM401.49 69.7001L400.764 70.3886L400.769 70.3932L401.49 69.7001ZM432.13 25.9401L431.937 26.9213L431.945 26.923L431.954 26.9245L432.13 25.9401ZM439.33 28.7401L438.737 29.5457L438.751 29.5555L438.764 29.5648L439.33 28.7401ZM443.25 34.0201L442.301 34.3363L442.306 34.3501L442.311 34.3637L443.25 34.0201ZM443.01 49.5401L442.106 49.112L442.101 49.1226L443.01 49.5401ZM429.65 57.3001L429.809 58.2873L429.816 58.2861L429.823 58.2849L429.65 57.3001ZM416.13 47.0601H415.13V48.0601H416.13V47.0601ZM425.09 46.3401L424.679 45.4282L424.67 45.4322L424.662 45.4364L425.09 46.3401ZM426.69 39.0601H427.69V38.0601H426.69V39.0601ZM417.65 39.7801L417.239 38.8682L417.23 38.8722L417.222 38.8764L417.65 39.7801ZM415.13 58.1801V61.5401H417.13V58.1801H415.13ZM416.019 62.534C416.997 62.6427 417.976 62.7242 418.954 62.7786L419.065 60.7816C418.124 60.7293 417.182 60.6509 416.24 60.5462L416.019 62.534ZM418.954 62.7786C419.933 62.8329 420.911 62.8601 421.89 62.8601V60.8601C420.948 60.8601 420.007 60.8339 419.065 60.7816L418.954 62.7786ZM421.89 62.8601C427.972 62.8601 434.1 61.8824 440.271 59.9337L439.669 58.0265C433.679 59.9178 427.754 60.8601 421.89 60.8601V62.8601ZM438.982 59.1372L441.222 73.2172L443.197 72.903L440.957 58.823L438.982 59.1372ZM441.952 72.0939C434.831 73.9929 427.824 74.9401 420.93 74.9401V76.9401C428.009 76.9401 435.189 75.9673 442.467 74.0263L441.952 72.0939ZM420.93 74.9401C412.094 74.9401 405.94 72.8854 402.211 69.007L400.769 70.3932C405.04 74.8348 411.845 76.9401 420.93 76.9401V74.9401ZM402.215 69.0116C398.46 65.0563 396.49 58.9513 396.49 50.5001H394.49C394.49 59.2222 396.519 65.9172 400.764 70.3886L402.215 69.0116ZM396.49 50.5001C396.49 42.0476 398.46 35.9733 402.211 32.0732L400.769 30.6868C396.519 35.1067 394.49 41.7793 394.49 50.5001H396.49ZM402.211 32.0732C405.997 28.1381 412.154 26.0601 420.93 26.0601V24.0601C411.892 24.0601 405.09 26.1952 400.769 30.6868L402.211 32.0732ZM420.93 26.0601C425.372 26.0601 429.036 26.3515 431.937 26.9213L432.322 24.9588C429.25 24.3554 425.447 24.0601 420.93 24.0601V26.0601ZM431.954 26.9245C434.84 27.4399 437.083 28.329 438.737 29.5457L439.922 27.9344C437.95 26.4845 435.393 25.507 432.305 24.9557L431.954 26.9245ZM438.764 29.5648C440.443 30.716 441.62 32.2935 442.301 34.3363L444.198 33.7039C443.386 31.2667 441.95 29.3242 439.895 27.9154L438.764 29.5648ZM442.311 34.3637C443.057 36.4031 443.45 39.0499 443.45 42.3401H445.45C445.45 38.9103 445.043 36.0104 444.189 33.6765L442.311 34.3637ZM443.45 42.3401C443.45 44.9996 442.989 47.247 442.106 49.112L443.913 49.9682C444.95 47.7799 445.45 45.2273 445.45 42.3401H443.45ZM442.101 49.1226C441.294 50.88 439.905 52.3629 437.865 53.5571L438.875 55.2831C441.208 53.9173 442.912 52.1469 443.918 49.9576L442.101 49.1226ZM437.865 53.5571C435.815 54.7566 433.034 55.6874 429.476 56.3153L429.823 58.2849C433.519 57.6328 436.551 56.6436 438.875 55.2831L437.865 53.5571ZM429.49 56.3129C425.934 56.8881 421.485 57.1801 416.13 57.1801V59.1801C421.548 59.1801 426.112 58.8854 429.809 58.2873L429.49 56.3129ZM415.13 43.1401V47.0601H417.13V43.1401H415.13ZM416.13 48.0601H420.05V46.0601H416.13V48.0601ZM420.05 48.0601C422.417 48.0601 424.29 47.8254 425.518 47.2438L424.662 45.4364C423.863 45.8148 422.376 46.0601 420.05 46.0601V48.0601ZM425.5 47.252C427.094 46.5348 427.69 44.9079 427.69 42.9801H425.69C425.69 44.5723 425.219 45.1854 424.679 45.4282L425.5 47.252ZM427.69 42.9801V39.0601H425.69V42.9801H427.69ZM426.69 38.0601H422.77V40.0601H426.69V38.0601ZM422.77 38.0601C420.396 38.0601 418.509 38.2967 417.239 38.8682L418.06 40.692C418.923 40.3035 420.45 40.0601 422.77 40.0601V38.0601ZM417.222 38.8764C415.683 39.6053 415.13 41.237 415.13 43.1401H417.13C417.13 41.5232 417.59 40.9149 418.078 40.6838L417.222 38.8764Z" fill="#3485FF"/>
</g>
<path d="M156.618 20H214.618C216.551 20 218.118 21.567 218.118 23.5V76H153.118V23.5C153.118 21.567 154.685 20 156.618 20Z" fill="#2652F0" stroke="#3485FF"/>
<path d="M181.118 40V56C181.118 61.5228 176.641 66 171.118 66C165.595 66 161.118 61.5228 161.118 56V40C161.118 34.4772 165.595 30 171.118 30C176.641 30 181.118 34.4772 181.118 40Z" fill="#FAFAFA" stroke="#3485FF"/>
<path d="M176.118 40V56C176.118 58.7614 173.879 61 171.118 61C168.357 61 166.118 58.7614 166.118 56V40C166.118 37.2386 168.357 35 171.118 35C173.879 35 176.118 37.2386 176.118 40Z" fill="#2652F0" stroke="#3485FF"/>
<path d="M210 40V56C210 61.5228 205.523 66 200 66C194.477 66 190 61.5228 190 56V40C190 34.4772 194.477 30 200 30C205.523 30 210 34.4772 210 40Z" fill="#FAFAFA" stroke="#3485FF"/>
<path d="M205.118 40V56C205.118 58.7614 202.879 61 200.118 61C197.357 61 195.118 58.7614 195.118 56V40C195.118 37.2386 197.357 35 200.118 35C202.879 35 205.118 37.2386 205.118 40Z" fill="#2652F0" stroke="#3485FF"/>
<path d="M165.618 1H205.618C208.103 1 210.118 3.01472 210.118 5.5V26H161.118V5.5C161.118 3.01472 163.133 1 165.618 1Z" fill="#2652F0" stroke="#3485FF"/>
<path d="M177.618 13.5C177.618 14.5506 177.825 15.5909 178.227 16.5615C178.629 17.5321 179.218 18.414 179.961 19.1569C180.704 19.8997 181.586 20.489 182.557 20.891C183.527 21.2931 184.567 21.5 185.618 21.5C186.669 21.5 187.709 21.2931 188.679 20.891C189.65 20.489 190.532 19.8997 191.275 19.1569C192.018 18.414 192.607 17.5321 193.009 16.5615C193.411 15.5909 193.618 14.5506 193.618 13.5C193.618 11.3783 192.775 9.34344 191.275 7.84315C189.775 6.34285 187.74 5.5 185.618 5.5C183.496 5.5 181.461 6.34285 179.961 7.84315C178.461 9.34344 177.618 11.3783 177.618 13.5Z" stroke="#3485FF" stroke-linecap="round" stroke-linejoin="round"/>
<path d="M185.618 9.05566V13.5001L188.285 16.1668" stroke="#3485FF" stroke-linecap="round" stroke-linejoin="round"/>
<path d="M224.118 1H218.118V76H224.118V1Z" fill="#D4D4D4" stroke="#3485FF"/>
<path d="M224.118 1.22168L242.194 8.00018L224.118 14.7787V1.22168Z" fill="#F53232" stroke="#3485FF"/>
</svg>
